<svg xmlns="http://www.w3.org/2000/svg" width="820" height="280" viewBox="0 0 820 280" role="img" aria-label="qdf — Quick Data Format">
  <defs>
    <linearGradient id="sky" x1="0" y1="0" x2="0" y2="1">
      <stop offset="0" stop-color="#03040c"/>
      <stop offset="0.34" stop-color="#0a1030"/>
      <stop offset="0.5" stop-color="#3b1f4e"/>
      <stop offset="0.6" stop-color="#8a3d1a"/>
      <stop offset="0.66" stop-color="#b45309"/>
      <stop offset="0.72" stop-color="#3a1a0f"/>
      <stop offset="1" stop-color="#120a08"/>
    </linearGradient>
    <radialGradient id="sun" cx="50%" cy="50%" r="50%">
      <stop offset="0" stop-color="#fde68a"/><stop offset="0.5" stop-color="#f59e0b"/><stop offset="1" stop-color="#b45309"/>
    </radialGradient>
    <radialGradient id="sunhaze" cx="50%" cy="50%" r="50%">
      <stop offset="0" stop-color="#f59e0b" stop-opacity="0.7"/><stop offset="1" stop-color="#f59e0b" stop-opacity="0"/>
    </radialGradient>
    <radialGradient id="moon" cx="42%" cy="38%" r="60%">
      <stop offset="0" stop-color="#e7e9ff"/><stop offset="1" stop-color="#7c86b8"/>
    </radialGradient>
    <linearGradient id="neon" x1="0" y1="0" x2="1" y2="0">
      <stop offset="0" stop-color="#2dd4bf"/><stop offset="0.5" stop-color="#38bdf8"/><stop offset="1" stop-color="#818cf8"/>
    </linearGradient>
    <radialGradient id="coreglow" cx="50%" cy="45%" r="55%">
      <stop offset="0" stop-color="#7dd3fc" stop-opacity="0.95"/><stop offset="1" stop-color="#7dd3fc" stop-opacity="0"/>
    </radialGradient>
    <linearGradient id="wFront" x1="0" y1="0" x2="1" y2="1">
      <stop offset="0" stop-color="#5eead4"/><stop offset="0.5" stop-color="#38bdf8"/><stop offset="1" stop-color="#a5b4fc"/>
    </linearGradient>
    <linearGradient id="scrim" x1="0" y1="0" x2="0" y2="1">
      <stop offset="0" stop-color="#05060f" stop-opacity="0"/><stop offset="0.5" stop-color="#05060f" stop-opacity="0.55"/><stop offset="1" stop-color="#05060f" stop-opacity="0"/>
    </linearGradient>
    <radialGradient id="vignette" cx="50%" cy="46%" r="65%">
      <stop offset="0.5" stop-color="#000" stop-opacity="0"/><stop offset="1" stop-color="#000" stop-opacity="0.6"/>
    </radialGradient>
    <filter id="glow" x="-70%" y="-70%" width="240%" height="240%">
      <feGaussianBlur stdDeviation="3" result="b"/><feMerge><feMergeNode in="b"/><feMergeNode in="SourceGraphic"/></feMerge>
    </filter>
    <filter id="soft" x="-150%" y="-150%" width="400%" height="400%"><feGaussianBlur stdDeviation="26"/></filter>
    <filter id="blur6" x="-60%" y="-60%" width="220%" height="220%"><feGaussianBlur stdDeviation="6"/></filter>
    <clipPath id="card"><rect x="2" y="2" width="816" height="276" rx="32"/></clipPath>
  </defs>

  <rect x="2" y="2" width="816" height="276" rx="32" fill="url(#sky)" stroke="#2a2140" stroke-opacity="0.6"/>

  <g clip-path="url(#card)">
    <!-- nebula clouds -->
    <ellipse cx="560" cy="60" rx="150" ry="60" fill="#7c3aed" opacity="0.18" filter="url(#soft)"/>
    <ellipse cx="300" cy="40" rx="120" ry="46" fill="#0e7490" opacity="0.16" filter="url(#soft)"/>
    <ellipse cx="700" cy="120" rx="120" ry="50" fill="#b45309" opacity="0.14" filter="url(#soft)"/>

    <!-- starfield -->
    <g fill="#eef2ff">
      <circle cx="70" cy="34" r="1.1" opacity="0.8"/><circle cx="140" cy="60" r="0.8" opacity="0.6"/>
      <circle cx="230" cy="28" r="1.3" opacity="0.9"/><circle cx="300" cy="72" r="0.7" opacity="0.5"/>
      <circle cx="380" cy="40" r="1" opacity="0.7"/><circle cx="450" cy="24" r="0.8" opacity="0.6"/>
      <circle cx="520" cy="66" r="1.2" opacity="0.85"/><circle cx="600" cy="34" r="0.7" opacity="0.5"/>
      <circle cx="670" cy="70" r="1" opacity="0.7"/><circle cx="740" cy="40" r="1.3" opacity="0.9"/>
      <circle cx="785" cy="90" r="0.8" opacity="0.6"/><circle cx="110" cy="96" r="0.7" opacity="0.5"/>
      <circle cx="420" cy="88" r="0.9" opacity="0.6"/><circle cx="250" cy="104" r="0.8" opacity="0.5"/>
      <circle cx="560" cy="100" r="0.7" opacity="0.5"/><circle cx="330" cy="20" r="0.9" opacity="0.7"/>
    </g>

    <!-- twin celestial bodies -->
    <circle cx="690" cy="128" r="70" fill="url(#sunhaze)"/>
    <circle cx="690" cy="128" r="40" fill="url(#sun)"/>
    <circle cx="236" cy="52" r="14" fill="url(#moon)" opacity="0.92"/>
    <circle cx="286" cy="38" r="7" fill="url(#moon)" opacity="0.6"/>

    <!-- horizon haze -->
    <rect x="2" y="150" width="816" height="26" fill="#f59e0b" opacity="0.28" filter="url(#blur6)"/>

    <!-- desert dune ridges (back → front, hazy → dark) -->
    <path d="M -20,168 C 160,150 340,176 520,160 C 660,148 760,166 840,158 L 840,290 L -20,290 Z" fill="#7c3a12" opacity="0.55"/>
    <path d="M -20,190 C 180,168 300,198 470,184 C 640,170 770,196 840,186 L 840,290 L -20,290 Z" fill="#4a2310" opacity="0.85"/>
    <path d="M -20,222 C 140,200 360,232 560,214 C 700,202 780,224 840,220 L 840,290 L -20,290 Z" fill="#1c0f08"/>

    <!-- windblown sand streaks -->
    <g stroke="#f59e0b" stroke-width="1" opacity="0.14" fill="none">
      <path d="M 40,204 C 120,200 200,206 300,202"/>
      <path d="M 380,214 C 480,210 560,216 660,211"/>
    </g>
  </g>

  <!-- ambient blue glow behind the crystal (spice contrast) -->
  <ellipse cx="150" cy="150" rx="96" ry="90" fill="#0891b2" opacity="0.4" filter="url(#soft)"/>

  <!-- redundant streams IN -->
  <g stroke="url(#neon)" stroke-width="2.4" fill="none" opacity="0.55" stroke-linecap="round">
    <path d="M 34,104 C 80,112 100,124 122,142"/>
    <path d="M 28,126 C 76,131 96,137 118,146"/>
    <path d="M 26,150 C 74,150 96,150 116,150"/>
    <path d="M 28,174 C 76,168 96,162 118,154"/>
  </g>
  <g fill="#7dd3fc" opacity="0.85">
    <circle cx="34" cy="104" r="2.4"/><circle cx="28" cy="126" r="2.4"/><circle cx="26" cy="150" r="2.4"/><circle cx="28" cy="174" r="2.4"/>
  </g>

  <!-- compressed output -->
  <g filter="url(#glow)">
    <path d="M 188,150 L 248,150" stroke="url(#neon)" stroke-width="8" stroke-linecap="round"/>
    <polygon points="250,138 264,150 250,162 245,150" fill="#a5f3fc"/>
    <polygon points="250,150 264,150 250,162" fill="#6366f1"/>
    <circle cx="282" cy="150" r="2.8" fill="#a5f3fc" opacity="0.8"/>
  </g>
  <circle cx="152" cy="150" r="30" fill="url(#coreglow)"/>

  <!-- 3D faceted density crystal (the monolith on the horizon) -->
  <g filter="url(#glow)" stroke="#06121f" stroke-width="0.8" stroke-linejoin="round">
    <polygon points="138,124 166,124 152,138" fill="#e0f2fe"/>
    <polygon points="138,124 122,146 152,138" fill="#7dd3fc"/>
    <polygon points="166,124 182,146 152,138" fill="#38bdf8"/>
    <polygon points="122,146 152,138 182,146 152,154" fill="#3b82f6"/>
    <polygon points="122,146 152,154 152,188" fill="#1d4ed8"/>
    <polygon points="182,146 152,154 152,188" fill="#172554"/>
    <polygon points="152,138 155,154 152,188 149,154" fill="#ffffff" opacity="0.5"/>
    <polygon points="138,124 166,124 152,138" fill="#ffffff" opacity="0.35"/>
  </g>

  <!-- legibility scrim under wordmark -->
  <rect x="316" y="96" width="470" height="150" fill="url(#scrim)" filter="url(#blur6)"/>

  <!-- 3D extruded wordmark -->
  <g font-family="ui-sans-serif, Segoe UI, Helvetica, Arial, sans-serif" font-weight="900" letter-spacing="-6" font-size="120">
    <text x="356.6" y="169.2" fill="#07101f">qdf</text>
    <text x="356.0" y="168.6" fill="#0a1628">qdf</text>
    <text x="355.4" y="168.0" fill="#0d1c34">qdf</text>
    <text x="354.8" y="167.4" fill="#102340">qdf</text>
    <text x="354.2" y="166.8" fill="#132a4d">qdf</text>
    <text x="353.6" y="166.2" fill="#16325a">qdf</text>
    <text x="353.0" y="165.6" fill="#1a3b68">qdf</text>
    <text x="352.4" y="165.0" fill="#1e4477">qdf</text>
    <text x="351.8" y="164.4" fill="#234e88">qdf</text>
    <text x="351.2" y="163.8" fill="#285799">qdf</text>
    <text x="350.6" y="163.2" fill="#2e62ab">qdf</text>
    <text x="350" y="162" fill="url(#wFront)" filter="url(#glow)">qdf</text>
  </g>
  <text x="356" y="220" font-family="ui-monospace, SFMono-Regular, Menlo, Consolas, monospace"
        font-size="20" letter-spacing="6.5" fill="#b8a58a">QUICK · DATA · FORMAT</text>

  <rect x="2" y="2" width="816" height="276" rx="32" fill="url(#vignette)"/>
</svg>
